<svg width="30" height="24" viewBox="0 0 30 24" fill="none" xmlns="http://www.w3.org/2000/svg">
<path d="M13.2071 18.7071L18.5 13.4142L23.793 18.7071L25.2071 17.293L19.9142 12L25.2071 6.70708L23.793 5.29295L18.5 10.5858L13.2071 5.29295L11.793 6.70708L17.0858 12L11.793 17.293L13.2071 18.7071Z" fill="#E493B3"/>
<path d="M28.5 0H11.1652C10.9615 0.000337996 10.76 0.0420113 10.5729 0.122497C10.3857 0.202983 10.2169 0.320607 10.0765 0.46825L0 11.1014V12.8986L10.0765 23.5317C10.2169 23.6794 10.3857 23.797 10.5729 23.8775C10.76 23.958 10.9615 23.9997 11.1652 24H28.5C28.8977 23.9995 29.2789 23.8414 29.5601 23.5601C29.8414 23.2789 29.9995 22.8977 30 22.5V1.5C29.9995 1.10232 29.8414 0.721056 29.5601 0.439851C29.2789 0.158647 28.8977 0.000463153 28.5 0ZM28 22H11.3802L2 12.1014V11.8986L11.3802 2H28V22Z" fill="#E493B3"/>
</svg>
